<svg xmlns="http://www.w3.org/2000/svg" viewBox="0 0 32 32">
	<path fill="#26a17b" d="m16 32c-8.8 0-16-7.2-16-16 0-8.8 7.2-16 16-16 8.8 0 16 7.2 16 16 0 8.8-7.2 16-16 16z"/>
	<path fill="#fff" d="m25.6 15.9c0 1.1-3.3 1.9-7.7 2.1v7.6h-3.9v-7.6c-4.4-0.2-7.7-1-7.7-2.1 0-1 3.3-1.9 7.7-2.1v-2.4h-5.4v-3.6h14.7v3.6h-5.4v2.4c4.4 0.2 7.7 1.1 7.7 2.1zm-0.9-0.2c0-0.8-2.9-1.5-6.8-1.6v2.6c-0.1 0-0.7 0.1-1.9 0.1-1 0-1.7-0.1-2-0.1v-2.6c-3.9 0.1-6.8 0.8-6.8 1.6 0 0.8 2.9 1.5 6.8 1.7 0.3 0 1 0 2 0 1.2 0 1.8 0 1.9 0 3.9-0.2 6.8-0.9 6.8-1.7z"/>
</svg>