<svg version="1.2" xmlns="http://www.w3.org/2000/svg" viewBox="0 0 32 32">
	<path fill="#3e73c4" d="m16 32c-8.8 0-16-7.2-16-16 0-8.8 7.2-16 16-16 8.8 0 16 7.2 16 16 0 8.8-7.2 16-16 16z"/>
	<path fill="#fff" d="m17 21.3v1.5c-0.1 0.3-0.3 0.5-0.5 0.5h-0.9c-0.3-0.1-0.5-0.3-0.5-0.5v-1.5c-2-0.3-3-1.4-3.2-2.9q0-0.1 0-0.2 0-0.1 0.1-0.1 0-0.1 0.1-0.1 0.1-0.1 0.2-0.1h1c0.2 0 0.4 0.2 0.4 0.4 0.2 0.9 0.8 1.6 2.4 1.6 1.1 0 2-0.7 2-1.7 0-0.9-0.6-1.3-2.3-1.6-2.5-0.3-3.8-1.1-3.8-3.1 0-1.5 1.2-2.7 3-3v-1.4c0.1-0.3 0.3-0.4 0.5-0.4h0.9c0.3 0 0.5 0.2 0.5 0.4v1.5q0.5 0 1 0.2 0.4 0.2 0.8 0.6 0.4 0.3 0.6 0.8 0.3 0.4 0.4 0.9 0 0.1-0.1 0.2 0 0.1-0.1 0.2 0 0-0.1 0-0.1 0.1-0.2 0.1h-0.9q-0.1 0-0.2-0.1 0 0-0.1 0-0.1-0.1-0.1-0.1 0-0.1-0.1-0.1c-0.3-0.9-0.9-1.3-2-1.3-1.2 0-1.8 0.5-1.8 1.4 0 0.8 0.4 1.3 2.2 1.6 2.5 0.3 3.8 1 3.8 3.1 0 1.7-1.2 2.9-3 3.2z"/>
	<path fill="#fff" d="m13.3 25v0.9c0 0.1 0 0.2-0.1 0.2-0.1 0.3-0.3 0.4-0.6 0.3-3.4-1.1-6-3.7-7.1-7.1-0.4-1.4-0.6-2.8-0.5-4.3 0.2-1.4 0.6-2.8 1.2-4.1 0.7-1.2 1.6-2.4 2.7-3.3 1.1-0.9 2.4-1.6 3.7-2 0.1-0.1 0.2-0.1 0.3-0.1q0.4 0.1 0.4 0.5v0.8q0 0.5-0.4 0.6c-2.5 1-4.5 2.9-5.4 5.4-1.8 4.7 0.6 10 5.4 11.7 0.2 0.1 0.4 0.4 0.4 0.5zm13.2-12.3c0.4 1.4 0.6 2.8 0.5 4.3-0.2 1.4-0.6 2.8-1.2 4.1-0.7 1.2-1.6 2.4-2.7 3.3-1.1 0.9-2.4 1.6-3.7 2-0.1 0.1-0.2 0.1-0.3 0.1q-0.4-0.1-0.4-0.5v-0.8q0-0.5 0.4-0.6c2.5-1 4.5-2.9 5.4-5.4 1.8-4.7-0.6-10-5.4-11.7-0.2-0.1-0.4-0.4-0.4-0.6v-0.9c0-0.1 0-0.1 0.1-0.2 0.1-0.2 0.3-0.4 0.6-0.2 3.3 1.1 6 3.7 7.1 7.1z"/>
</svg>