<svg version="1.2" xmlns="http://www.w3.org/2000/svg" viewBox="0 0 512 512" width="512" height="512">
	<title>popcorn-svgrepo-com-svg</title>
	<style>
		.s0 { fill: #efd27f } 
		.s1 { fill: #e2b544 } 
		.s2 { fill: #fff0b0 } 
	</style>
	<path id="Layer" class="s0" d="m509.9 335.6c-9.6 67.4-77.1 120.4-149.4 110.8-53-4.8-96.4-43.4-110.8-91.6-28.9 43.4-77.1 67.5-130.1 62.7-72.3-9.7-125.3-77.1-115.7-149.4 9.7-72.3 72.3-120.5 139.8-115.7 14.4-57.8 77.1-101.2 139.7-91.6 67.5 9.7 115.7 62.7 115.7 125.3 67.4 14.5 110.8 77.2 110.8 149.5z"/>
	<path id="Layer" class="s1" d="m399.1 186.1c67.4 14.5 115.6 77.2 106 144.6-9.7 67.5-77.1 120.5-149.4 110.9-53-4.8-96.4-43.4-110.8-91.6-28.9 43.4-77.1 67.5-130.1 62.7m168.6-351.9c67.5 9.7 115.7 62.7 115.7 125.3 67.4 14.5 115.6 77.2 106 144.6-9.7 67.5-77.1 120.5-149.4 110.9-53-4.8-96.4-43.4-110.8-91.6"/>
	<path id="Layer" class="s2" d="m138.9 191c4.8 9.6-9.7 28.9-33.8 43.3-24.1 14.5-48.2 14.5-53 4.9-4.8-9.7 9.7-29 33.7-43.4 24.1-14.5 48.2-19.3 53.1-4.8zm125.2-106.1c4.9 9.7-4.8 24.1-28.9 38.6-19.2 9.6-38.5 14.4-48.2 4.8-4.8-9.6 4.9-24.1 29-38.6 24-14.4 43.3-14.4 48.1-4.8z"/>
</svg>