<svg xmlns="http://www.w3.org/2000/svg" viewBox="0 0 32 32">
	<path fill="#201a2d" d="m16 32c-8.8 0-16-7.2-16-16 0-8.8 7.2-16 16-16 8.8 0 16 7.2 16 16 0 8.8-7.2 16-16 16z"/>
	<path fill="#fff" d="m22.8 9.6q1.2 1.3 1.9 2.9 0.6 1.6 0.6 3.4 0 1.8-0.6 3.4-0.7 1.7-1.9 3l-0.6-0.7q1.1-1.1 1.7-2.6 0.5-1.5 0.5-3.1 0-1.6-0.5-3.1-0.6-1.4-1.7-2.6l0.6-0.6zm-13.2-0.5q1.3-1.2 2.9-1.9 1.7-0.6 3.4-0.6 1.8 0 3.4 0.6 1.7 0.7 3 1.9l-0.6 0.6q-1.2-1.1-2.7-1.7-1.5-0.6-3.1-0.6-1.6 0-3 0.6-1.5 0.6-2.7 1.7zm-0.5 13.2q-1.2-1.3-1.9-2.9-0.6-1.7-0.6-3.4 0-1.8 0.6-3.5 0.7-1.6 1.9-2.9l0.6 0.6q-1.1 1.2-1.7 2.7-0.6 1.5-0.6 3 0 1.6 0.6 3.1 0.6 1.5 1.7 2.7zm13.2 0.5q-1.3 1.2-3 1.8-1.6 0.7-3.4 0.7-1.7 0-3.4-0.7-1.6-0.6-2.9-1.8l0.6-0.6q1.2 1.1 2.7 1.7 1.4 0.5 3 0.5 1.6 0 3.1-0.5 1.5-0.6 2.7-1.7zm-3.5-7.1c1 0.2 1.6 0.8 1.5 2.2-0.1 1.7-1.4 2.1-3.2 2.2v1.7h-1v-1.7h-0.9v1.8h-1v-1.8h-2.1l0.2-1.3c0 0 0.7 0 0.7 0q0.1 0 0.1 0 0 0 0.1 0 0 0 0 0 0.1 0 0.1-0.1 0 0 0 0 0.1 0 0.1-0.1 0 0 0-0.1 0 0 0 0v-4.8q0-0.1 0-0.2-0.1-0.1-0.2-0.1-0.1-0.1-0.2-0.1-0.1-0.1-0.2 0c0-0.1-0.7 0-0.7 0v-1.2h2.1v-1.7h1v1.7h0.9v-1.7h1v1.7c1.4 0.1 2.5 0.6 2.6 1.8 0.1 0.9-0.3 1.5-0.9 1.8zm-3.5 0.8v2.3c0.7 0 2.9 0.2 2.9-1.1 0-1.4-2.2-1.2-2.9-1.2zm0-3.2v2.1c0.6 0 2.4 0.2 2.4-1 0-1.3-1.8-1.1-2.4-1.1z"/>
	<path fill="#fff" d="m15.9 26.9c-6 0-10.9-4.9-10.9-11 0-6 4.9-10.9 10.9-10.9 6.1 0 11 4.9 11 10.9 0 1.5-0.3 2.9-0.9 4.2-0.5 1.3-1.3 2.5-2.3 3.6-1.1 1-2.3 1.8-3.6 2.3-1.3 0.6-2.7 0.9-4.2 0.9zm0-21c-5.5 0-10 4.5-10 10 0 5.6 4.5 10.1 10 10.1 5.6 0 10.1-4.5 10.1-10.1 0-1.3-0.3-2.6-0.8-3.8-0.5-1.3-1.2-2.4-2.2-3.3-0.9-0.9-2-1.7-3.2-2.2-1.2-0.5-2.6-0.7-3.9-0.7z"/>
</svg>