<svg xmlns="http://www.w3.org/2000/svg" viewBox="0 0 256 256">
	<path fill="#ff007a" d="m128 256c-70.8 0-128-57.2-128-128 0-70.8 57.2-128 128-128 70.8 0 128 57.2 128 128 0 70.8-57.2 128-128 128z"/>
	<path fill="#fff" d="m98.1 46.1c-2.3-0.3-2.4-0.4-1.3-0.5 2-0.3 6.9 0.1 10.3 0.9 7.8 1.9 14.9 6.6 22.5 15.1l2 2.2 2.9-0.4c12.1-2 24.5-0.4 34.9 4.3 2.8 1.3 7.3 4 7.9 4.6 0.1 0.2 0.5 1.6 0.7 3.1 0.8 5.1 0.4 9-1.2 11.9-0.8 1.6-0.9 2.1-0.3 3.5q0.2 0.4 0.5 0.7 0.3 0.4 0.7 0.6 0.4 0.3 0.8 0.4 0.5 0.1 1 0.1c2.5 0 5.3-4.1 6.6-9.9l0.5-2.3 1 1.2c5.5 6.2 9.9 14.8 10.6 20.9l0.2 1.5-0.9-1.4c-1.6-2.5-3.2-4.2-5.3-5.5-3.7-2.5-7.6-3.3-18-3.9-9.4-0.5-14.7-1.3-20-3-9-2.9-13.5-6.8-24.1-20.8-4.8-6.2-7.7-9.6-10.6-12.4-6.6-6.3-13.1-9.6-21.4-10.9z"/>
	<path fill="#fff" d="m179.4 60c0.2-4.2 0.8-6.9 1.9-9.4 0.5-1 0.9-1.8 0.9-1.8q0 0.2 0 0.4-0.1 0.2-0.1 0.4-0.1 0.2-0.1 0.4-0.1 0.2-0.2 0.4c-0.8 2.4-1 5.8-0.4 9.6 0.7 5 1.2 5.7 6.3 11 2.5 2.4 5.3 5.6 6.3 6.9l1.9 2.5-1.9-1.8c-2.2-2.1-7.5-6.3-8.7-6.9-0.7-0.4-0.9-0.4-1.3 0.1-0.5 0.4-0.6 1.1-0.6 4.2-0.1 4.9-0.8 8-2.4 11.2-0.9 1.6-1 1.3-0.2-0.6 0.6-1.5 0.6-2.1 0.6-6.8 0-9.5-1.1-11.7-7.7-15.6q-0.7-0.5-1.5-0.9-0.7-0.4-1.5-0.8-0.8-0.4-1.6-0.8-0.7-0.3-1.5-0.7-0.4-0.2-0.8-0.3-0.4-0.2-0.7-0.4-0.4-0.2-0.8-0.4-0.3-0.2-0.7-0.4c0.2-0.1 6.6 1.7 9.2 2.7 3.9 1.5 4.5 1.7 5 1.5 0.3-0.1 0.4-1 0.6-3.7zm-76.9 16.2c-4.6-6.4-7.5-16.2-6.9-23.5l0.2-2.2 1.1 0.2c2 0.3 5.4 1.6 7 2.6 4.4 2.6 6.3 6.1 8.2 15.1 0.6 2.7 1.3 5.7 1.7 6.7 0.5 1.6 2.6 5.4 4.3 7.9 1.2 1.8 0.4 2.6-2.3 2.4-4.1-0.4-9.7-4.3-13.3-9.2zm71.3 47.5c-21.7-8.7-29.3-16.3-29.3-29.1 0-1.9 0-3.4 0.1-3.4 0.1 0 0.9 0.6 1.9 1.4 4.4 3.5 9.3 5 22.9 7 8 1.2 12.5 2.1 16.7 3.5 13.2 4.4 21.4 13.3 23.3 25.4 0.6 3.5 0.3 10.1-0.7 13.6-0.7 2.7-2.9 7.7-3.5 7.9-0.1 0-0.3-0.6-0.4-1.4-0.2-4.6-2.5-9-6.3-12.3-4.4-3.8-10.3-6.8-24.7-12.6zm-15.2 3.6q-0.1-0.6-0.2-1.2-0.2-0.5-0.3-1.1-0.1-0.6-0.3-1.1-0.1-0.6-0.3-1.2l-0.5-1.6 1 1.1c1.4 1.6 2.5 3.7 3.5 6.4 0.7 2 0.8 2.7 0.8 6 0 3.3-0.1 4-0.8 5.9q-0.3 1-0.8 2-0.5 1-1 1.9-0.6 0.9-1.3 1.8-0.7 0.8-1.5 1.6c-3.9 4-9 6.2-16.3 7.2-1.3 0.1-5 0.4-8.3 0.6-8.2 0.4-13.7 1.3-18.5 3q-0.2 0-0.4 0.1-0.1 0.1-0.3 0.1-0.2 0.1-0.4 0.1-0.1 0-0.3 0c-0.2-0.2 3.1-2.2 5.8-3.5 3.9-1.8 7.7-2.9 16.4-4.3 4.2-0.7 8.6-1.6 9.7-1.9 10.6-3.2 16-11.6 14.3-21.9z"/>
	<path fill="#fff" d="m168.5 144.9c-2.9-6.2-3.6-12.1-2-17.7 0.2-0.6 0.5-1.1 0.6-1.1q0.2 0.1 0.4 0.2 0.2 0.1 0.4 0.2 0.2 0.1 0.4 0.2 0.2 0.1 0.3 0.2c1.4 0.9 4 2.4 11.1 6.3 8.8 4.8 13.9 8.6 17.3 12.8 3 3.7 4.9 8 5.8 13.2 0.5 2.9 0.2 10-0.6 12.9-2.4 9.4-7.9 16.7-15.8 21q-0.2 0.1-0.5 0.3-0.3 0.1-0.6 0.3-0.3 0.1-0.6 0.3-0.3 0.1-0.6 0.2c-0.1 0 0.3-1 1-2.4 2.6-5.5 2.9-10.9 0.9-16.9-1.2-3.7-3.7-8.1-8.8-15.7-5.8-8.8-7.3-11.2-8.7-14.3zm-81.4 33.4c8.1-6.8 18.1-11.6 27.2-13.1 3.9-0.6 10.5-0.4 14.1 0.6 5.8 1.4 11 4.8 13.7 8.8 2.7 3.9 3.8 7.2 5 14.8 0.5 3 1 5.9 1.1 6.6 0.9 3.9 2.6 7.1 4.8 8.6 3.4 2.5 9.3 2.7 15 0.4q0.2-0.1 0.5-0.2 0.2-0.1 0.4-0.1 0.3-0.1 0.5-0.2 0.3 0 0.5-0.1c0.2 0.2-2.7 2.2-4.7 3.2q-0.9 0.5-1.9 0.9-0.9 0.3-1.9 0.6-1 0.2-2.1 0.3-1 0.1-2 0.1c-5.3 0-9.7-2.7-13.3-8.1-0.7-1.1-2.4-4.4-3.6-7.2-3.9-8.8-5.8-11.5-10.3-14.4-3.9-2.6-8.9-3.1-12.7-1.2-5 2.4-6.3 8.8-2.8 12.8 1.4 1.6 4.1 3 6.2 3.3 1 0.1 1.9 0 2.8-0.3 1-0.2 1.8-0.7 2.5-1.3 0.7-0.7 1.3-1.4 1.7-2.3 0.4-0.9 0.6-1.8 0.5-2.8 0-2.6-1-4.1-3.5-5.3-3.5-1.6-7.3 0.3-7.3 3.6 0 1.4 0.6 2.2 2 2.9 0.9 0.4 1 0.4 0.2 0.3-3.2-0.7-3.9-4.6-1.3-7.1 3-3.1 9.5-1.8 11.7 2.4 0.9 1.8 1 5.3 0.2 7.5-1.8 4.7-7.1 7.2-12.4 5.9-3.7-1-5.1-2-9.5-6.5-7.6-7.8-10.6-9.3-21.5-11.1l-2.1-0.3c0 0 2.4-2 2.3-2z"/>
	<path fill="#fff" d="m49.6 26.8q0 0 0 0zm0 0c0 0 1.7-1.3 1.7-1.3l0.8 0.9q47.4 52.1 50.4 55.7l1.5 1.6-0.2 2.6c-0.1 3.3-1.2 5.6-3.7 7.9-2.9 2.7-6.5 4.1-12 4.9-3.5 0.5-4.7 1-6.1 2.5-1.3 1.5-1.8 3.3-2.2 7.9-0.5 7.1-1.4 10.1-4.7 17.2-3.3 6.8-4 9.4-3.4 13.1 0.7 4.4 3.2 7.7 9.1 11.7 4.5 3.1 6.5 5.1 7.7 7.4 0.7 1.5 0.7 2 0.7 4.6 0 3.9-0.6 5.5-3.3 8.3-4.3 4.6-11.9 8.3-21.4 10.5-3.9 0.9-4.1 0.9-4.1-0.1 0-1.1-1.5-4-4-8-3-4.5-4.1-6.8-5.2-10.3-1.3-3.9-1.6-6.6-1.4-10.7 0.1-3.9 0.6-5.7 2.1-8.8 1.2-2.4 2-3.5 6.9-9.6 8.4-10.4 11.4-16.5 12.5-25.1 0.9-7.7 2.2-11.4 5.2-14.7 1.8-2 2.2-2.8 2.2-4.2 0-0.7-2.9-6-11.2-21-13.4-23.8-13.4-23.8-13-23.5q1.8 2.7 3.5 5.3 1.7 2.6 3.4 5.2 1.7 2.7 3.4 5.3 1.7 2.7 3.4 5.3c9.6 14.9 13.8 21.2 14.8 22.1 1.5 1.4 3.5 2.3 5.3 2.3 1.6 0 4.7-0.9 6.3-1.8 2.7-1.5 3.3-3.5 1.7-5.8q-1.5-2-46-56.5zm13.7 131.1q0.5-0.7 0.6-1.6 0.1-0.8-0.1-1.7-0.2-0.8-0.7-1.5-0.4-0.7-1.1-1.2c-1.9-1.2-4.7-0.6-4.7 1 0 0.4 0.3 0.8 0.9 1.1 1 0.5 1 1.1 0.3 2.3-0.9 1.2-0.8 2.3 0.1 3 1.5 1.2 3.6 0.6 4.7-1.4zm51-56.8c3.1 1.6 5.4 5.2 4.9 7.9-0.6 3.1-5.8 5.7-11.8 5.7-3 0.1-4.1-0.3-5.3-1.9-0.7-1-1-4.1-0.5-5.8 0.8-2.9 3.3-5.7 5.9-6.5 1.7-0.5 5.1-0.2 6.8 0.6zm0.2 4.8c0.9-1.3 0.5-2.7-1-3.6-3-1.9-7.5-0.4-7.5 2.5 0 1.3 2.3 2.9 4.5 2.9 1.4 0 3.4-0.9 4-1.8z"/>
</svg>