<svg xmlns="http://www.w3.org/2000/svg" viewBox="0 0 32 32">
	<path fill="#6f41d8" d="m16 32c-8.8 0-16-7.2-16-16 0-8.8 7.2-16 16-16 8.8 0 16 7.2 16 16 0 8.8-7.2 16-16 16z"/>
	<path fill="#fff" d="m25.4 15.1q0.1 0.1 0.2 0.2 0.2 0.1 0.2 0.2 0.1 0.2 0.2 0.3 0 0.2 0 0.3v4.8c0 0.5-0.3 0.9-0.6 1.1l-4.3 2.3c-0.4 0.3-0.9 0.3-1.2 0l-4.3-2.3c-0.4-0.2-0.6-0.6-0.6-1.1v-1.6l2-1.1v1.6c0 0.4 0.2 0.8 0.6 1.1l2.2 1.2c0.4 0.2 0.9 0.2 1.3 0l2.2-1.3c0.5-0.2 0.7-0.6 0.7-1v-2.6c0-0.4-0.3-0.8-0.7-1l-2.2-1.3c-0.4-0.2-0.9-0.2-1.3 0l-2.8 1.6-2 1.2-2.9 1.6c-0.4 0.2-0.9 0.2-1.2 0l-4.3-2.4c-0.4-0.2-0.6-0.6-0.6-1v-4.8q0-0.2 0-0.3 0.1-0.2 0.2-0.3 0-0.2 0.2-0.3 0.1-0.1 0.2-0.2l4.3-2.3c0.4-0.3 0.9-0.3 1.2 0l4.2 2.3q0.1 0.1 0.3 0.2 0.1 0.1 0.2 0.3 0 0.1 0.1 0.3 0 0.1 0 0.3v1.6l-1.9 1.1v-1.6c0-0.4-0.3-0.8-0.7-1.1l-2.2-1.2c-0.4-0.2-0.9-0.2-1.3 0l-2.2 1.2c-0.4 0.3-0.6 0.7-0.6 1.1v2.5c0 0.5 0.2 0.9 0.6 1.1l2.3 1.3c0.4 0.2 0.9 0.2 1.2 0l2.9-1.7 2-1.1 2.8-1.6c0.4-0.2 0.9-0.2 1.3 0 0 0 4.3 2.4 4.3 2.4z"/>
</svg>