<svg xmlns="http://www.w3.org/2000/svg" viewBox="0 0 32 32">
	<path fill="#2b2e7f" d="m16 32c-8.8 0-16-7.2-16-16 0-8.8 7.2-16 16-16 8.8 0 16 7.2 16 16 0 8.8-7.2 16-16 16z"/>
	<path fill="#fff" d="m14.5 22v-8.8h-3.9c0 0 0.5-2.4 3.7-2.4h6.7c0 0-0.6 2.4-3.2 2.4h-0.7v5.8c0 2.2-2.6 3-2.6 3z"/>
	<path fill="#fff" d="m24.4 23.6q-0.1 0.1-0.1 0.1 0 0 0 0-0.1 0.1-0.1 0.1c-4.6 4.5-12 4.5-16.6 0q-0.3-0.4-0.6-0.7-0.3-0.4-0.6-0.7-0.3-0.4-0.5-0.8-0.3-0.4-0.5-0.8 0 0 0.1 0.1 0 0 0 0.1 0.1 0 0.1 0 0 0.1 0.1 0.1l0.1 0.2q0.2 0.2 0.5 0.4c4.4 4.4 11.5 4.4 15.9 0 0.8-0.8 1.4-1.7 1.9-2.8 0.4-1.1 0.7-2.2 0.7-3.4 0-1.1-0.3-2.3-0.7-3.3-0.5-1.1-1.1-2.1-1.9-2.9q-0.3-0.3-0.6-0.5 0.2 0.1 0.3 0.1l0.1 0.1q0.1 0.1 0.3 0.1l0.1 0.1q0 0.1 0.1 0.1 0 0 0 0 0.1 0 0.1 0 0 0 0 0.1l0.2 0.1q0 0 0.1 0 0 0 0 0.1 0.1 0 0.1 0 0 0 0 0.1h0.2l0.2 0.2 0.1 0.1q0.1 0 0.1 0.1 0 0 0.1 0 0 0 0 0.1 0 0 0.1 0l0.1 0.1q0.2 0.2 0.3 0.3 0.5 0.5 0.8 1 0.4 0.5 0.7 1 0.4 0.5 0.6 1.1 0.2 0.6 0.4 1.2c0.8 3.1-0.1 6.4-2.3 8.7q0 0 0 0z"/>
	<path fill="#fff" d="m6.6 19.1c-2.4-3.6-2-8.3 1-11.5q0.1-0.1 0.2-0.2c4.6-4.5 12-4.5 16.6 0q0.3 0.3 0.6 0.7 0.3 0.3 0.6 0.7 0.3 0.4 0.5 0.8 0.3 0.4 0.5 0.8-0.4-0.5-0.9-1c-4.4-4.3-11.5-4.3-15.9 0-0.8 0.8-1.4 1.8-1.9 2.9-0.4 1-0.7 2.2-0.7 3.3 0 1.2 0.3 2.4 0.7 3.4 0.5 1.1 1.1 2.1 1.9 2.9q0.1 0 0.2 0.1 0 0.1 0.1 0.1 0.1 0.1 0.2 0.2 0 0 0.1 0.1c-1.5-0.7-2.9-1.9-3.8-3.3z"/>
</svg>